<svg width="48" height="48" viewBox="0 0 48 48" fill="none" xmlns="http://www.w3.org/2000/svg">
<path d="M24.002 48C37.2579 48 48.004 37.2548 48.004 24C48.004 10.7452 37.2579 0 24.002 0C10.7461 0 0 10.7452 0 24C0 37.2548 10.7461 48 24.002 48Z" fill="#00C3EF"/>
<path d="M33.2467 14.8311C31.9112 14.8274 30.5908 15.1131 29.3763 15.6684C28.1618 16.2238 27.082 17.0357 26.2113 18.0482V18.0482C26.0067 18.2829 25.8168 18.53 25.6429 18.7882L23.6266 21.4155L19.3367 27.0134L18.8648 27.6247L18.5645 28.0107C18.0682 28.5103 17.4761 28.9046 16.8237 29.1699C16.1714 29.4353 15.4722 29.5662 14.768 29.555C14.0463 29.5555 13.332 29.4103 12.6677 29.1282C12.0035 28.8461 11.403 28.4328 10.9023 27.9131C10.4016 27.3935 10.011 26.7781 9.75379 26.1038C9.49661 25.4296 9.37819 24.7104 9.40561 23.9893C9.37819 23.2682 9.49661 22.549 9.75379 21.8747C10.011 21.2005 10.4016 20.5851 10.9023 20.0654C11.403 19.5457 12.0035 19.1324 12.6677 18.8503C13.332 18.5682 14.0463 18.4231 14.768 18.4236C15.6989 18.4196 16.614 18.6639 17.419 19.1314C18.2239 19.5989 18.8896 20.2726 19.3475 21.0831L21.8785 18.1769C20.7188 16.7563 19.1598 15.7161 17.4029 15.1905C15.6459 14.665 13.7717 14.6783 12.0223 15.2287C10.273 15.7792 8.72892 16.8415 7.58956 18.2784C6.45019 19.7153 5.7679 21.4608 5.63082 23.2894C5.49374 25.1181 5.90817 26.9458 6.82057 28.5365C7.73297 30.1272 9.10142 31.4078 10.7491 32.2128C12.3969 33.0179 14.2482 33.3104 16.0639 33.0526C17.8795 32.7949 19.5762 31.9986 20.9347 30.7668L28.7102 20.9437C29.181 20.1671 29.8459 19.5263 30.6394 19.0845C31.4329 18.6426 32.3278 18.4149 33.236 18.4236C33.9577 18.4231 34.672 18.5682 35.3363 18.8503C36.0005 19.1324 36.601 19.5457 37.1017 20.0654C37.6024 20.5851 37.993 21.2005 38.2502 21.8747C38.5074 22.549 38.6258 23.2682 38.5984 23.9893C38.5984 25.4113 38.0334 26.7752 37.0278 27.7807C36.0221 28.7863 34.6582 29.3512 33.236 29.3512C31.8138 29.3512 30.4499 28.7863 29.4442 27.7807C28.4386 26.7752 27.8736 25.4113 27.8736 23.9893L24.8278 27.7533C25.4998 29.2676 26.5681 30.5723 27.92 31.5298C29.272 32.4873 30.8574 33.0621 32.5089 33.1935C34.1604 33.3249 35.8168 33.0081 37.3031 32.2764C38.7895 31.5447 40.0507 30.4253 40.9537 29.0364C41.8567 27.6475 42.3679 26.0406 42.4334 24.3853C42.4989 22.73 42.1163 21.0877 41.3259 19.6318C40.5355 18.1759 39.3667 16.9603 37.9428 16.1135C36.5189 15.2666 34.8927 14.8199 33.236 14.8204L33.2467 14.8311Z" fill="white"/>
<path d="M33.2252 25.7373C34.0663 25.7373 34.7482 25.0555 34.7482 24.2145C34.7482 23.3735 34.0663 22.6917 33.2252 22.6917C32.3842 22.6917 31.7023 23.3735 31.7023 24.2145C31.7023 25.0555 32.3842 25.7373 33.2252 25.7373Z" fill="white"/>
</svg>
